<svg width="52" height="52" viewBox="0 0 52 52" fill="none" xmlns="http://www.w3.org/2000/svg">
<circle cx="26" cy="26" r="26" fill="#0A2342"/>
<path d="M35.9049 27.2387C35.9049 33.4292 31.5715 36.5245 26.4211 38.3197C26.1513 38.4111 25.8584 38.4067 25.5915 38.3073C20.4287 36.5245 16.0953 33.4292 16.0953 27.2387V18.5721C16.0953 18.2437 16.2258 17.9288 16.458 17.6966C16.6902 17.4644 17.0051 17.334 17.3334 17.334C19.8096 17.334 22.9049 15.8483 25.0591 13.9664C25.3214 13.7423 25.6551 13.6191 26.0001 13.6191C26.3451 13.6191 26.6788 13.7423 26.9411 13.9664C29.1077 15.8606 32.1906 17.334 34.6668 17.334C34.9951 17.334 35.31 17.4644 35.5422 17.6966C35.7744 17.9288 35.9049 18.2437 35.9049 18.5721V27.2387Z" stroke="#D99D21" stroke-width="1.5" stroke-linecap="round" stroke-linejoin="round"/>
<path d="M22.2858 26.0005L24.762 28.4767L29.7143 23.5244" stroke="#D99D21" stroke-width="1.48571" stroke-linecap="round" stroke-linejoin="round"/>
</svg>
